<svg xmlns="http://www.w3.org/2000/svg" width="600" height="695" viewBox="0 0 600 695" role="img" aria-labelledby="title desc">
<title id="title">Working stack</title><desc id="desc">Java, Python, TypeScript, Rust, SQL, Spring Boot, FastAPI, React, Tauri, PostgreSQL, SQLite, Docker, LangGraph, MCP, and OpenCV.</desc>
<style>.sans{font-family:'Segoe UI',Helvetica,Arial,sans-serif}.serif{font-family:Georgia,'Times New Roman',serif}.mono{font-family:Consolas,'Courier New',monospace}
@media (prefers-reduced-motion: reduce) { .spin, .flow, .float, .pulse { animation: none !important; } }</style>
<defs><clipPath id="frame"><rect x="0" y="0" width="600" height="695" rx="18" fill="white"/></clipPath></defs>
<g clip-path="url(#frame)"><rect x="0" y="0" width="600" height="695" rx="0" fill="#2B2220"/><text x="32" y="65" class="serif" font-size="38" fill="#F6F0E6" >Tools for the whole system.</text><g transform="translate(32 105) scale(0.84)" fill="none" stroke="#ECA797" stroke-width="2" stroke-linecap="round" stroke-linejoin="round"><path d="M4 21h27v14q0 10-14 10T4 35zM31 24h5q10 0 7 8-3 6-12 5M12 15q-8-5 0-10M23 15q-8-5 0-10M0 49h36"/></g><text x="87" y="140" class="sans" font-size="25" fill="#F6F0E6" >Java</text><path d="M32 175L277 175" stroke="#584541" stroke-width="1" /><g transform="translate(322 105) scale(0.84)" fill="none" stroke="#ECA797" stroke-width="2" stroke-linecap="round" stroke-linejoin="round"><path d="M22 1H13q-9 0-9 10v10h25v7H7q-7 0-7 9t10 9h11M22 49h10q9 0 9-10V29H16v-7h22q7 0 7-9t-10-9H22"/><circle cx="13" cy="10" r="1.5"/><circle cx="32" cy="40" r="1.5"/></g><text x="377" y="140" class="sans" font-size="25" fill="#F6F0E6" >Python</text><path d="M322 175L567 175" stroke="#584541" stroke-width="1" /><g transform="translate(32 224) scale(0.84)" fill="none" stroke="#ECA797" stroke-width="2" stroke-linecap="round" stroke-linejoin="round"><rect x="0" y="3" width="46" height="46" rx="3"/><path d="M7 21h15M14.5 21v21M40 23q-12-7-12 2t7 9q9 9-6 7"/></g><text x="87" y="259" class="sans" font-size="25" fill="#F6F0E6" >TypeScript</text><path d="M32 294L277 294" stroke="#584541" stroke-width="1" /><g transform="translate(322 224) scale(0.84)" fill="none" stroke="#ECA797" stroke-width="2" stroke-linecap="round" stroke-linejoin="round"><circle cx="23" cy="25" r="17"/><path d="M23 1v7M23 42v7M0 25h7M39 25h7M7 8l5 5M35 37l5 5M7 42l5-5M35 13l5-5M17 35V15h7q12 0 5 10H17M25 25l7 10"/></g><text x="377" y="259" class="sans" font-size="25" fill="#F6F0E6" >Rust</text><path d="M322 294L567 294" stroke="#584541" stroke-width="1" /><g transform="translate(32 343) scale(0.84)" fill="none" stroke="#ECA797" stroke-width="2" stroke-linecap="round" stroke-linejoin="round"><ellipse cx="23" cy="9" rx="21" ry="8"/><path d="M2 9v31c0 11 42 11 42 0V9M2 24c0 11 42 11 42 0"/></g><text x="87" y="378" class="sans" font-size="25" fill="#F6F0E6" >SQL</text><path d="M32 413L277 413" stroke="#584541" stroke-width="1" /><text x="32" y="492" class="mono" font-size="13" fill="#D86650" letter-spacing="1.5">FRAMEWORKS</text><text x="32" y="526" class="sans" font-size="21" fill="#F6F0E6" >Spring Boot · FastAPI · React · Tauri</text><text x="32" y="579" class="mono" font-size="13" fill="#D86650" letter-spacing="1">DATA / AGENTS / INFRASTRUCTURE</text><text x="32" y="615" class="sans" font-size="21" fill="#F6F0E6" >PostgreSQL · SQLite · Docker</text><text x="32" y="650" class="sans" font-size="21" fill="#F6F0E6" >LangGraph · MCP · OpenCV</text></g></svg>