<svg xmlns="http://www.w3.org/2000/svg" width="1200" height="186" viewBox="0 0 1200 186" role="img" aria-labelledby="title">
<title id="title">Java · Python · TypeScript · Rust · SQL</title><style>
.sans{font-family:'Segoe UI',Helvetica,Arial,sans-serif}
.display{font-family:Georgia,'Times New Roman',serif}
.mono{font-family:Consolas,'Courier New',monospace}
.paper{fill:#F4EDDC}.ink{fill:#221D24}.ink-line{fill:none;stroke:#221D24}
.one{fill:#D94136;animation:palette-one 18s step-end infinite}
.two{fill:#294DFF;animation:palette-two 18s step-end infinite}
.one-line{fill:none;stroke:#D94136;animation:palette-one-line 18s step-end infinite}
.two-line{fill:none;stroke:#294DFF;animation:palette-two-line 18s step-end infinite}
.phase-b .one{fill:#5D287E;animation-delay:-9s}
.phase-b .two{fill:#C9E54E;animation-delay:-9s}
.phase-b .one-line{stroke:#5D287E;animation-delay:-9s}
.phase-b .two-line{stroke:#C9E54E;animation-delay:-9s}
@keyframes palette-one{0%,100%{fill:#D94136}50%{fill:#5D287E}}
@keyframes palette-two{0%,100%{fill:#294DFF}50%{fill:#C9E54E}}
@keyframes palette-one-line{0%,100%{stroke:#D94136}50%{stroke:#5D287E}}
@keyframes palette-two-line{0%,100%{stroke:#294DFF}50%{stroke:#C9E54E}}
.spin{animation:spin 8s linear infinite;transform-origin:0px 0px}
.counter{animation:spin 13s linear infinite reverse;transform-origin:0px 0px}
.bob{animation:bob 2.2s cubic-bezier(.34,1.4,.64,1) infinite}
.bob-late{animation:bob 2.2s cubic-bezier(.34,1.4,.64,1) -.8s infinite}
.wiggle{animation:wiggle 2.8s ease-in-out infinite;transform-origin:0px 0px}
.hop{animation:hop 2.6s cubic-bezier(.34,1.4,.64,1) infinite;transform-origin:0px 0px}
.blink{animation:blink 5.7s ease-in-out infinite;transform-origin:0px 0px}
.track{animation:track 3s linear infinite}
@keyframes spin{to{transform:rotate(360deg)}}
@keyframes bob{0%,100%{transform:translateY(0)}50%{transform:translateY(-15px)}}
@keyframes wiggle{0%,100%{transform:rotate(-9deg)}50%{transform:rotate(9deg)}}
@keyframes hop{0%,100%{transform:translateY(0) scale(1,1)}35%{transform:translateY(-17px) scale(.94,1.08)}65%{transform:translateY(0) scale(1.06,.94)}}
@keyframes blink{0%,42%,48%,100%{transform:scaleY(1)}45%{transform:scaleY(.08)}}
@keyframes track{to{stroke-dashoffset:-96}}
@media(prefers-reduced-motion:reduce){*{animation:none!important}}
</style>
<defs><clipPath id="frame"><rect x="0" y="0" width="1200" height="186" rx="20" class="paper"/></clipPath></defs>
<g clip-path="url(#frame)" class="phase-a"><rect x="0" y="0" width="1200" height="186" rx="0" class="paper"/><g transform="translate(77 73) scale(0.68)"><g class="wiggle"><path d="M-23-2H15V16Q15 32-4 32T-23 16ZM15 1H22Q37 1 30 15Q26 20 15 19M-28 37H26M-8-10Q-19-19-6-29M7-10Q-4-19 9-29" class="ink-line" stroke-width="3" /></g></g><text x="134" y="82" class="ink sans" font-size="24" font-weight="600" >Java</text><g transform="translate(308 73) scale(0.68)"><g class="bob"><path d="M0-31H-16Q-28-31-28-16V0H7V10H-21Q-34 10-34 23T-18 35H0M0 35H15Q28 35 28 20V4H-7V-6H21Q34-6 34-19T18-31H0" class="ink-line" stroke-width="3" /><circle cx="-16" cy="-19" r="2" class="ink"/><circle cx="16" cy="23" r="2" class="ink"/></g></g><text x="365" y="82" class="ink sans" font-size="24" font-weight="600" >Python</text><g transform="translate(539 73) scale(0.68)"><g class="wiggle"><rect x="-32" y="-32" width="64" height="64" rx="6" class="paper"/><text x="-23" y="21" class="ink sans" font-size="32" font-weight="700" >TS</text></g></g><text x="596" y="82" class="ink sans" font-size="24" font-weight="600" >TypeScript</text><g transform="translate(770 73) scale(0.68)"><g class="bob"><circle cx="0" cy="0" r="29" class="paper"/><path d="M0-41V-29M0 29V41M-41 0H-29M29 0H41M-29-29L-20-20M20 20L29 29M-29 29L-20 20M20-20L29-29" class="ink-line" stroke-width="4" /><text x="-13" y="16" class="ink display" font-size="39" font-weight="700" >R</text></g></g><text x="827" y="82" class="ink sans" font-size="24" font-weight="600" >Rust</text><g transform="translate(1001 73) scale(0.68)"><g class="wiggle"><ellipse cx="0" cy="-20" rx="30" ry="11" class="paper"/><path d="M-30-20V21C-30 36 30 36 30 21V-20M-30-4C-30 11 30 11 30-4" class="ink-line" stroke-width="3" /></g></g><text x="1058" y="82" class="ink sans" font-size="24" font-weight="600" >SQL</text><rect x="44" y="145" width="1112" height="6" rx="0" class="one"/></g></svg>